# xmcd
#
# Track frame offsets: 
#        150
#        6098
#        18078
#        33818
#        48961
#        64497
#        84640
#        89339
#        101537
#        113195
#        131152
#        144862
#        151839
#
# Disc length: 2117 seconds
#
# Revision: 0
# Processed by: cddbd v1.5.1PL2 Copyright (c) Steve Scherf et al.
# Submitted via: ExactAudioCopy v0.95b2
#
DISCID=9b08430d
DTITLE=Buck 65 - Strong Arm
DYEAR=2006
DGENRE=Hip-Hop
TTITLE0=Intro (This Heat - Horizontal Hold)
TTITLE1=Dang (Incredible Bongo Band - Let There be Drums)
TTITLE2=Hole in the Road (Dub Specialist - Rastaman Version)
TTITLE3=What Grace Means (John Fahey - Sunflower River Blues)
TTITLE4=Don't Belong (Trans Am - Firepoker)
TTITLE5=Suspect (Sébastien Tellier - Trilogie Femme)
TTITLE6=Brace Your (Sister Mary Nelson - Judgement)
TTITLE7=F.O.S. (The Homosexuals - Snapshots of Nairobi)
TTITLE8=Old-Time Stuff (Goreki - Olden Style Pieces II from the Sympho
TTITLE8=ny of Sorrowful Songs)
TTITLE9=B and W and Read all Over (David Wescott - Passage of the Red Se
TTITLE9=a)
TTITLE10=Full Blown (Six Finger Satellite - Pulling a Train)
TTITLE11=Cutthroat (Broadcast - Microtronics 02)
TTITLE12=The Ole One-Two (Flowers Morgan - Activity Three)
EXTD=
EXTT0=
EXTT1=
EXTT2=
EXTT3=
EXTT4=
EXTT5=
EXTT6=
EXTT7=
EXTT8=
EXTT9=
EXTT10=
EXTT11=
EXTT12=
PLAYORDER=
